<svg width="40" height="30" viewBox="0 0 40 30" fill="none" xmlns="http://www.w3.org/2000/svg">
<path d="M2.275 0.400024C1.02812 0.400024 0 1.42815 0 2.67502V23.6C0 24.9282 1.07188 26 2.4 26H5.675C6.05625 28.2688 8.02812 30 10.4 30C12.7719 30 14.7438 28.2688 15.125 26H22.525C23.1156 26 23.6438 25.75 24.05 25.375C24.4656 25.7407 24.9969 25.9938 25.6 26H26.475C26.8563 28.2688 28.8281 30 31.2 30C33.8406 30 36 27.8407 36 25.2C36 22.5594 33.8406 20.4 31.2 20.4C28.8281 20.4 26.8563 22.1313 26.475 24.4H25.6C25.45 24.4 25.2219 24.2969 25.05 24.125C24.8781 23.9531 24.8 23.7469 24.8 23.6V8.40002C24.8 8.10002 25.3 7.60002 25.6 7.60002H32C32.6281 7.60002 33.5125 8.2719 34.125 9.00002C34.1313 9.0094 34.1437 9.01565 34.15 9.02502L34.275 9.20002H30.4C29.125 9.20002 28 10.2313 28 11.6V14.8C28 15.4656 28.3 16.05 28.725 16.475C29.15 16.9 29.7344 17.2 30.4 17.2H38.4V23.6C38.4 23.9 37.9 24.4 37.6 24.4H36V26H37.6C38.9281 26 40 24.9282 40 23.6V15.9C40 14.0688 38.725 12.45 38.725 12.45H38.7L35.4 8.05002V8.02502L35.375 8.00002C34.6375 7.1094 33.5312 6.00002 32 6.00002H25.6C25.3156 6.00002 25.0531 6.0594 24.8 6.15002V2.72502C24.8 1.4969 23.8313 0.400024 22.55 0.400024H2.275ZM2.275 2.00002H22.55C22.8938 2.00002 23.2 2.33127 23.2 2.72502V23.725C23.2 24.1 22.9031 24.4 22.525 24.4H15.125C14.7438 22.1313 12.7719 20.4 10.4 20.4C8.02812 20.4 6.05625 22.1313 5.675 24.4H2.4C2.1 24.4 1.6 23.8969 1.6 23.6V2.67502C1.6 2.30002 1.89375 2.00002 2.275 2.00002ZM30.4 10.8H35.475L37.425 13.4C37.425 13.4 38.15 14.6406 38.3 15.6H30.4C30.2656 15.6 30.05 15.5 29.875 15.325C29.7 15.15 29.6 14.9344 29.6 14.8V11.6C29.6 11.1969 30.075 10.8 30.4 10.8ZM10.4 22C12.1781 22 13.6 23.4219 13.6 25.2C13.6 26.9781 12.1781 28.4 10.4 28.4C8.62188 28.4 7.2 26.9781 7.2 25.2C7.2 23.4219 8.62188 22 10.4 22ZM31.2 22C32.9781 22 34.4 23.4219 34.4 25.2C34.4 26.9781 32.9781 28.4 31.2 28.4C29.4219 28.4 28 26.9781 28 25.2C28 23.4219 29.4219 22 31.2 22Z" fill="black"/>
</svg>
