<svg width="30" height="30" viewBox="0 0 30 30" fill="none" xmlns="http://www.w3.org/2000/svg">
<path fill-rule="evenodd" clip-rule="evenodd" d="M7.08903 5.32128L11.2531 9.4854C12.3207 8.75893 13.6113 8.33342 15 8.33342C16.3887 8.33342 17.6793 8.75893 18.7468 9.48538L22.911 5.32128C20.7555 3.55707 18.0022 2.5 15 2.5C11.9978 2.5 9.2445 3.55707 7.08903 5.32128ZM24.6787 7.08905L20.5147 11.2531C21.2412 12.3207 21.6667 13.6113 21.6667 15C21.6667 16.3887 21.2412 17.6793 20.5147 18.747L24.6787 22.911C26.443 20.7555 27.5 18.0022 27.5 15C27.5 11.9978 26.443 9.24452 24.6787 7.08905ZM22.911 24.6787L18.747 20.5147C17.6793 21.2412 16.3887 21.6667 15 21.6667C13.6113 21.6667 12.3207 21.2412 11.2531 20.5147L7.08905 24.6787C9.24452 26.443 11.9978 27.5 15 27.5C18.0022 27.5 20.7555 26.443 22.911 24.6787ZM5.32128 22.911L9.48532 18.747C8.75885 17.6793 8.33333 16.3887 8.33333 15C8.33333 13.6113 8.75887 12.3207 9.48537 11.2531L5.32127 7.08905C3.55707 9.24452 2.5 11.9978 2.5 15C2.5 18.0022 3.55707 20.7555 5.32128 22.911ZM4.3934 4.3934C7.10648 1.6803 10.8582 0 15 0C19.1418 0 22.8935 1.6803 25.6067 4.3934C28.3197 7.1065 30 10.8582 30 15C30 19.1418 28.3197 22.8935 25.6067 25.6067C22.8935 28.3197 19.1418 30 15 30C10.8582 30 7.10652 28.3197 4.39342 25.6067C1.6803 22.8935 0 19.1418 0 15C0 10.8582 1.6803 7.1065 4.3934 4.3934ZM15 10.8334C13.849 10.8334 12.8092 11.2984 12.0538 12.0538C11.2983 12.8092 10.8333 13.8492 10.8333 15C10.8333 16.151 11.2983 17.191 12.0537 17.9463C12.8092 18.7017 13.849 19.1667 15 19.1667C16.151 19.1667 17.1908 18.7017 17.9463 17.9463C18.7017 17.191 19.1667 16.151 19.1667 15C19.1667 13.8492 18.7017 12.8092 17.9463 12.0538C17.1908 11.2984 16.151 10.8334 15 10.8334Z" fill="#1F2328"/>
</svg>
