<svg width="38" height="38" viewBox="0 0 38 38" fill="none" xmlns="http://www.w3.org/2000/svg">
<path d="M19 0.538452C21.3077 0.538452 23.1769 3.06922 25.2231 3.93845C27.2692 4.80768 30.4692 4.33076 32.0231 5.97691C33.5769 7.62307 33.1846 10.6461 34.0615 12.7769C34.9385 14.9077 37.4615 16.6923 37.4615 19C37.4615 21.3077 34.9308 23.1769 34.0615 25.2231C33.1923 27.2692 33.6692 30.4692 32.0231 32.0231C30.3769 33.5769 27.3538 33.2 25.2231 34.0615C23.0923 34.9231 21.3077 37.4615 19 37.4615C16.6923 37.4615 14.8231 34.9308 12.7769 34.0615C10.7308 33.1923 7.53076 33.6692 5.97691 32.0231C4.42307 30.3769 4.79999 27.3538 3.93845 25.2231C3.07691 23.0923 0.538452 21.3077 0.538452 19C0.538452 16.6923 3.06922 14.8231 3.93845 12.7769C4.80768 10.7308 4.33076 7.53076 5.97691 5.97691C7.62307 4.42307 10.6461 4.79999 12.7769 3.93845C14.9077 3.07691 16.6923 0.538452 19 0.538452ZM19 6.36922C16.5019 6.36922 14.0598 7.11 11.9827 8.49789C9.90559 9.88578 8.28667 11.8584 7.33068 14.1664C6.37469 16.4744 6.12456 19.014 6.61192 21.4641C7.09928 23.9143 8.30224 26.1649 10.0687 27.9313C11.8351 29.6977 14.0857 30.9007 16.5359 31.3881C18.986 31.8754 21.5256 31.6253 23.8336 30.6693C26.1415 29.7133 28.1142 28.0944 29.5021 26.0173C30.89 23.9402 31.6308 21.4981 31.6308 19C31.6206 15.6532 30.2866 12.4464 27.9201 10.0799C25.5536 7.71336 22.3468 6.37937 19 6.36922ZM24.8615 13.4077L26.1 14.5769C26.2266 14.744 26.2952 14.948 26.2952 15.1577C26.2952 15.3674 26.2266 15.5713 26.1 15.7385L18.2923 24.4385C18.1379 24.6135 17.947 24.7524 17.733 24.8455C17.519 24.9385 17.2871 24.9834 17.0538 24.9769C16.8217 24.9756 16.5923 24.9272 16.3794 24.8347C16.1665 24.7421 15.9746 24.6073 15.8154 24.4385L11.5923 20.2308C11.5149 20.1645 11.4515 20.0835 11.4057 19.9925C11.3599 19.9015 11.3327 19.8023 11.3255 19.7007C11.3183 19.5991 11.3314 19.497 11.364 19.4005C11.3966 19.304 11.4481 19.2149 11.5154 19.1385L11.5923 19.0538L12.8461 17.8923C12.9972 17.7299 13.2059 17.6332 13.4274 17.6231C13.649 17.6131 13.8656 17.6904 14.0308 17.8385L14.0846 17.8923L17.0769 20.9692L23.6846 13.4308C23.8394 13.2749 24.0488 13.1853 24.2684 13.181C24.488 13.1767 24.7007 13.258 24.8615 13.4077Z" fill="black"/>
</svg>
